#!OML:ASF H:\GeneralSubjects\Female5\Project 1\Capture day 1\Session 1\Female5.ASF
:FULLY-SPECIFIED
:DEGREES
428
root 17.1043 15.9976 7.53591 9.59187 76.6205 2.35551
lowerback 11.1989 -0.128386 3.36292
upperback -8.46725 0.950931 2.44338
thorax -15.8544 0.321968 0.617039
lowerneck -11.412 -1.40194 -1.15562
upperneck 34.2119 1.01607 -4.92062
head 13.4623 0.0559419 -1.50079
rclavicle -2.44505e-014 -1.03368e-014
rhumerus -54.2759 22.9198 -91.0754
rradius 42.8946
rwrist -10.2673
rhand -19.848 -20.6744
rfingers 7.12502
rthumb 6.48659 -50.5551
lclavicle -2.44505e-014 -1.03368e-014
lhumerus -41.4744 -3.00056 80.0287
lradius 31.2461
lwrist -10.3505
lhand -27.0318 30.3026
lfingers 7.12502
lthumb -0.450767 60.2819
rfemur -17.0255 10.0635 29.6766
rtibia 19.8199
rfoot -3.70065 -10.6523
rtoes -18.2718
lfemur -16.7353 -12.0111 -28.1691
ltibia 28.9282
lfoot -20.6548 -13.0869
ltoes -21.506
429
root 17.3101 16.2355 7.56237 9.4555 76.9344 2.63774
lowerback 10.9228 -0.210811 3.25663
upperback -8.68047 0.83265 2.49641
thorax -15.9419 0.286973 0.768118
lowerneck -11.3832 -1.41268 -1.33344
upperneck 34.4992 1.06292 -4.85845
head 13.5853 0.067846 -1.44204
rclavicle -8.74653e-015 -4.77083e-015
rhumerus -55.055 23.6652 -91.7085
rradius 44.362
rwrist -9.85368
rhand -19.3727 -20.6473
rfingers 7.12502
rthumb 6.9454 -50.5134
lclavicle -8.74653e-015 -4.77083e-015
lhumerus -41.3117 -3.20608 79.9963
lradius 31.5959
lwrist -9.27857
lhand -26.7304 30.2644
lfingers 7.12502
lthumb -0.159701 60.2441
rfemur -13.976 10.687 29.4963
rtibia 16.4219
rfoot -1.57389 -12.1332
rtoes -18.8518
lfemur -14.3477 -12.5413 -28.58
ltibia 26.3479
lfoot -21.8432 -11.8452
ltoes -23.1162
430
root 17.515 16.4579 7.59072 9.65917 77.2491 3.07979
lowerback 10.3577 -0.253671 3.04123
upperback -8.86542 0.734865 2.55813
thorax -15.8061 0.276522 0.981471
lowerneck -11.4137 -1.43086 -1.50626
upperneck 34.6862 1.06484 -4.74229
head 13.6756 0.0645253 -1.36782
rclavicle 2.34566e-014 -2.70347e-014
rhumerus -55.6723 24.3449 -92.1087
rradius 45.7563
rwrist -9.15562
rhand -19.0696 -20.5461
rfingers 7.12502
rthumb 7.23795 -50.4023
lclavicle 2.34566e-014 -2.70347e-014
lhumerus -41.036 -3.77347 80.2428
lradius 32.1644
lwrist -8.89832
lhand -26.1416 29.9999
lfingers 7.12502
lthumb 0.40898 59.9792
rfemur -11.1922 11.5422 29.3368
rtibia 13.1585
rfoot 0.321267 -13.8836
rtoes -18.3943
lfemur -12.3409 -13.1539 -29.0346
ltibia 23.882
lfoot -22.8457 -11.2238
ltoes -24.5011
431
root 17.7171 16.6603 7.61924 9.92378 77.5639 3.35637
lowerback 9.49177 -0.281436 2.77651
upperback -9.03664 0.644332 2.66079
thorax -15.4584 0.279684 1.26161
lowerneck -11.4852 -1.43484 -1.61637
upperneck 34.7603 1.06067 -4.63913
head 13.7243 0.0622844 -1.30919
rclavicle 7.55382e-015 4.77083e-015
rhumerus -56.0886 24.9825 -92.2497
rradius 47.0683
rwrist -8.49296
rhand -18.9251 -20.4082
rfingers 7.12502
rthumb 7.3774 -50.2596
lclavicle 7.55382e-015 4.77083e-015
lhumerus -40.7017 -4.51447 80.6423
lradius 33.0196
lwrist -9.03915
lhand -25.3072 29.7194
lfingers 7.12502
lthumb 1.21485 59.6957
rfemur -8.72004 12.5973 29.294
rtibia 10.0512
rfoot 1.86487 -15.9571
rtoes -17.0288
lfemur -10.7005 -13.8792 -29.4217
ltibia 21.3133
lfoot -23.521 -11.0327
ltoes -25.5386
432
root 17.9132 16.8387 7.6442 9.89914 77.8993 3.12883
lowerback 8.41566 -0.310715 2.59511
upperback -9.20644 0.568136 2.80461
thorax -14.9742 0.283945 1.53245
lowerneck -11.5937 -1.42536 -1.6557
upperneck 34.7407 1.05501 -4.56349
head 13.7389 0.0627258 -1.27322
rclavicle -2.34566e-014 3.18055e-014
rhumerus -56.2806 25.5647 -92.1327
rradius 48.2621
rwrist -8.10341
rhand -18.9223 -20.2298
rfingers 7.12502
rthumb 7.38018 -50.081
lclavicle -2.34566e-014 3.18055e-014
lhumerus -40.3306 -5.36882 81.1149
lradius 34.1689
lwrist -9.36436
lhand -24.4896 29.5256
lfingers 7.12502
lthumb 2.00451 59.4959
rfemur -6.55702 13.7689 29.4363
rtibia 7.11379
rfoot 2.99223 -18.3142
rtoes -14.9834
lfemur -9.36967 -14.7896 -29.6598
ltibia 18.4864
lfoot -23.9326 -10.9495
ltoes -26.0933
433
root 18.1002 16.9888 7.66237 9.38578 78.2766 2.24069
lowerback 7.26458 -0.338983 2.614
upperback -9.39619 0.527898 2.95927
thorax -14.4687 0.284677 1.69208
lowerneck -11.7159 -1.42299 -1.6582
upperneck 34.6562 1.02349 -4.49595
head 13.7266 0.0543868 -1.25004
rclavicle 2.66371e-014 -3.81667e-014
rhumerus -56.2635 26.0493 -91.7874
rradius 49.2799
rwrist -8.096
rhand -19.0118 -20.0433
rfingers 7.12502
rthumb 7.29379 -49.8976
lclavicle 2.66371e-014 -3.81667e-014
lhumerus -39.9432 -6.35371 81.6159
lradius 35.5634
lwrist -9.575
lhand -23.8989 29.41
lfingers 7.12502
lthumb 2.575 59.3742
rfemur -4.73214 14.9172 29.7593
rtibia 4.44873
rfoot 3.71126 -20.7909
rtoes -12.5361
lfemur -8.29198 -15.9613 -29.729
ltibia 15.3734
lfoot -24.252 -10.6246
ltoes -26.1444
